<?xml version="1.0" standalone="no"?>
<!DOCTYPE svg PUBLIC "-//W3C//DTD SVG 20010904//EN"
 "http://www.w3.org/TR/2001/REC-SVG-20010904/DTD/svg10.dtd">
<svg version="1.0" xmlns="http://www.w3.org/2000/svg"
 width="140.000000pt" height="120.000000pt" viewBox="0 0 140.000000 120.000000"
 preserveAspectRatio="xMidYMid meet">
<metadata>
Created by potrace 1.16, written by Peter Selinger 2001-2019
</metadata>
<g transform="translate(0.000000,120.000000) scale(0.100000,-0.100000)"
fill="#000000" stroke="none">
<path d="M430 684 c0 -3 16 -24 35 -47 19 -22 35 -47 35 -54 0 -7 11 -31 25
-53 39 -62 31 -91 -13 -50 -23 22 -45 89 -37 113 4 8 0 17 -9 20 -20 8 -28
-30 -15 -76 37 -135 250 -168 327 -51 27 41 37 84 28 119 -10 38 -23 22 -28
-36 -5 -48 -31 -98 -56 -107 -22 -7 -12 37 24 108 19 38 39 72 44 75 6 4 15
16 22 28 11 21 10 21 -8 7 -23 -18 -91 -88 -111 -115 -14 -18 -14 -17 -8 23
12 73 -22 45 -50 -42 -5 -16 -11 -10 -30 32 -13 29 -28 52 -33 52 -5 0 -8 -21
-6 -47 2 -27 1 -39 -2 -28 -4 11 -32 46 -63 77 -51 53 -71 67 -71 52z"/>
</g>
</svg>
